<mxfile host="app.diagrams.net" agent="Mozilla/5.0 (Windows NT 10.0; Win64; x64) AppleWebKit/537.36 (KHTML, like Gecko) Chrome/127.0.0.0 Safari/537.36 Edg/127.0.0.0" version="24.7.7">
  <diagram name="Page-1" id="bd3fAGK-DwoyYnA6aaEB">
    <mxGraphModel dx="1900" dy="-409" grid="1" gridSize="10" guides="1" tooltips="1" connect="1" arrows="1" fold="1" page="1" pageScale="1" pageWidth="850" pageHeight="1100" math="0" shadow="0">
      <root>
        <mxCell id="0" />
        <mxCell id="1" parent="0" />
        <mxCell id="ZZuSpD0ILWlfcbctMuXQ-1" value="Lexer" style="rounded=1;whiteSpace=wrap;html=1;" parent="1" vertex="1">
          <mxGeometry x="-620" y="1130" width="120" height="60" as="geometry" />
        </mxCell>
        <mxCell id="ZZuSpD0ILWlfcbctMuXQ-3" value="" style="endArrow=classic;html=1;rounded=0;" parent="1" edge="1" source="ZZuSpD0ILWlfcbctMuXQ-4">
          <mxGeometry width="50" height="50" relative="1" as="geometry">
            <mxPoint x="-560.5" y="1190" as="sourcePoint" />
            <mxPoint x="-560.5" y="1290" as="targetPoint" />
            <Array as="points" />
          </mxGeometry>
        </mxCell>
        <mxCell id="aZYYp9aZLBbX3xgSHQ0c-1" value="" style="endArrow=classic;html=1;rounded=0;" edge="1" parent="1" target="ZZuSpD0ILWlfcbctMuXQ-4">
          <mxGeometry width="50" height="50" relative="1" as="geometry">
            <mxPoint x="-560.5" y="1190" as="sourcePoint" />
            <mxPoint x="-560.5" y="1290" as="targetPoint" />
            <Array as="points" />
          </mxGeometry>
        </mxCell>
        <mxCell id="ZZuSpD0ILWlfcbctMuXQ-4" value="Syntax Checker" style="rounded=1;whiteSpace=wrap;html=1;" parent="1" vertex="1">
          <mxGeometry x="-620" y="1250" width="120" height="60" as="geometry" />
        </mxCell>
        <mxCell id="aZYYp9aZLBbX3xgSHQ0c-2" value="" style="endArrow=classic;html=1;rounded=0;" edge="1" parent="1">
          <mxGeometry width="50" height="50" relative="1" as="geometry">
            <mxPoint x="-560.5" y="1310" as="sourcePoint" />
            <mxPoint x="-560" y="1370" as="targetPoint" />
            <Array as="points" />
          </mxGeometry>
        </mxCell>
        <mxCell id="aZYYp9aZLBbX3xgSHQ0c-3" value="Semantic Analysis" style="rounded=1;whiteSpace=wrap;html=1;" vertex="1" parent="1">
          <mxGeometry x="-620" y="1370" width="120" height="60" as="geometry" />
        </mxCell>
        <mxCell id="aZYYp9aZLBbX3xgSHQ0c-4" value="" style="endArrow=classic;html=1;rounded=0;" edge="1" parent="1">
          <mxGeometry width="50" height="50" relative="1" as="geometry">
            <mxPoint x="-560.5" y="1430" as="sourcePoint" />
            <mxPoint x="-560" y="1490" as="targetPoint" />
            <Array as="points" />
          </mxGeometry>
        </mxCell>
        <mxCell id="aZYYp9aZLBbX3xgSHQ0c-5" value="Intermediate Code Generation" style="rounded=1;whiteSpace=wrap;html=1;" vertex="1" parent="1">
          <mxGeometry x="-620" y="1490" width="120" height="60" as="geometry" />
        </mxCell>
        <mxCell id="aZYYp9aZLBbX3xgSHQ0c-6" value="" style="endArrow=classic;html=1;rounded=0;" edge="1" parent="1">
          <mxGeometry width="50" height="50" relative="1" as="geometry">
            <mxPoint x="-560.5" y="1550" as="sourcePoint" />
            <mxPoint x="-560" y="1610" as="targetPoint" />
            <Array as="points" />
          </mxGeometry>
        </mxCell>
        <mxCell id="aZYYp9aZLBbX3xgSHQ0c-7" value="Code Optimization" style="rounded=1;whiteSpace=wrap;html=1;" vertex="1" parent="1">
          <mxGeometry x="-620" y="1610" width="120" height="60" as="geometry" />
        </mxCell>
        <mxCell id="aZYYp9aZLBbX3xgSHQ0c-8" value="" style="endArrow=classic;html=1;rounded=0;" edge="1" parent="1">
          <mxGeometry width="50" height="50" relative="1" as="geometry">
            <mxPoint x="-560.5" y="1670" as="sourcePoint" />
            <mxPoint x="-560" y="1730" as="targetPoint" />
            <Array as="points" />
          </mxGeometry>
        </mxCell>
        <mxCell id="aZYYp9aZLBbX3xgSHQ0c-9" value="Code Generation" style="rounded=1;whiteSpace=wrap;html=1;" vertex="1" parent="1">
          <mxGeometry x="-620" y="1730" width="120" height="60" as="geometry" />
        </mxCell>
      </root>
    </mxGraphModel>
  </diagram>
</mxfile>
